<svg version="1.1" xmlns="http://www.w3.org/2000/svg" width="500px" height="100px" style=""><path fill="#0793f7" d="M51.787109375,70.654296875q0-6.357421875,0.5712890625-12.7294921875t2.3876953125-12.5537109375q0.52734375-1.845703125,1.376953125-3.6474609375t2.080078125-3.2080078125t2.9296875-2.28515625t4.04296875-0.87890625l0.615234375,0.05859375q2.51953125,0.3515625,3.720703125,2.0361328125t1.201171875,4.2041015625q0,0.673828125-0.1611328125,1.6845703125t-0.5126953125,1.9482421875t-0.9521484375,1.5966796875t-1.5087890625,0.6591796875q-0.41015625-0.05859375-0.7470703125-0.146484375t-0.6298828125-0.380859375q0.46875-1.025390625,0.8349609375-2.138671875t0.3662109375-2.548828125q0-0.52734375-0.087890625-1.34765625t-0.3369140625-1.6259765625t-0.6591796875-1.40625t-1.142578125-0.6005859375q-1.845703125,0-3.10546875,2.0654296875t-2.109375,5.2734375t-1.259765625,7.08984375t-0.6298828125,7.5t-0.2490234375,6.533203125t-0.029296875,4.1162109375q0,1.40625-0.029296875,3.10546875l0,0.380859375q0.029296875,1.494140625,0.205078125,2.841796875q0.234375,1.5234375,0.908203125,2.63671875t2.109375,1.2890625q0.439453125,0.05859375,0.849609375,0.05859375q1.69921875,0,3.076171875-0.966796875q1.69921875-1.201171875,3.017578125-3.1201171875t2.34375-4.21875t1.8896484375-4.3505859375t1.6845703125-3.3984375t1.69921875-1.34765625q0.29296875,0,0.87890625,0.1171875t0.5859375,0.556640625q0,0.1171875-0.05859375,0.322265625t-0.146484375,0.322265625q-0.791015625,3.10546875-2.0068359375,6.4453125t-3.10546875,6.0791015625t-4.62890625,4.4677734375t-6.5771484375,1.728515625q-2.75390625,0-4.4677734375-1.0400390625t-2.63671875-2.783203125t-1.259765625-3.9404296875t-0.3369140625-4.453125z M82.42197265625,69.62890625q0-1.669921875,0.4248046875-3.4423828125t1.34765625-3.193359375t2.3291015625-2.314453125t3.3984375-0.8935546875q1.494140625,0,3.1494140625,0.5126953125t3.0322265625,1.46484375t2.2412109375,2.3291015625t0.8642578125,3.076171875q0,2.05078125-0.7470703125,3.896484375t-2.0947265625,3.2958984375t-3.1494140625,2.28515625t-3.9111328125,0.8349609375q-1.728515625,0-3.017578125-0.6298828125t-2.1533203125-1.6845703125t-1.2890625-2.490234375t-0.4248046875-3.046875z M86.72861328125,69.5703125q0,0.52734375,0.1611328125,1.552734375t0.4833984375,2.0068359375t0.8349609375,1.69921875t1.2451171875,0.6591796875q1.552734375-0.17578125,2.5634765625-1.0107421875t1.640625-2.0361328125t0.87890625-2.607421875t0.2490234375-2.666015625q0-1.611328125-0.6298828125-2.6953125t-2.0654296875-1.7578125q0,0.05859375,0.05859375,0.05859375t0.05859375-0.05859375l-0.732421875-0.17578125q-0.29296875-0.1171875-0.7177734375-0.263671875t-0.8349609375-0.64453125q-1.142578125,0.41015625-1.7724609375,1.0546875t-0.9521484375,1.5673828125t-0.3955078125,2.2119140625t-0.0732421875,3.10546875z M104.6193359375,68.046875q0-1.611328125,0.3076171875-3.4423828125t1.0546875-3.3544921875t2.0654296875-2.51953125t3.369140625-0.99609375q1.376953125,0,2.666015625,0.4541015625t2.431640625,1.2451171875q0.3515625-0.5859375,1.11328125-0.7177734375t1.34765625-0.1318359375q0.234375,0,0.6591796875,0.029296875t0.8349609375,0.17578125t0.7177734375,0.3515625t0.3662109375,0.5859375q0.234375,2.05078125,0.322265625,4.0869140625t0.263671875,4.0576171875q0.29296875,3.779296875,0.908203125,7.470703125t0.615234375,7.470703125q0,1.787109375-0.1611328125,3.8671875t-0.849609375,3.8525390625t-2.0068359375,2.9443359375t-3.662109375,1.171875q-2.109375,0-3.2373046875-0.7470703125t-2.0361328125-2.5048828125q0.05859375-0.5859375,0.7470703125-0.7763671875t1.1865234375-0.1904296875q0.46875,0,0.9521484375,0.087890625t0.7763671875,0.29296875l0.732421875,0.46875q1.083984375-2.2265625,1.318359375-4.86328125t0.234375-5.09765625q0-2.05078125-0.205078125-4.0576171875t-0.41015625-4.0283203125q-2.05078125,3.720703125-6.240234375,3.720703125q-1.93359375,0-3.1494140625-0.8203125t-1.875-2.080078125t-0.908203125-2.841796875t-0.2490234375-3.1640625z M108.2228515625,68.310546875q0,0.732421875,0.05859375,1.8896484375t0.3076171875,2.2705078125t0.7177734375,1.9189453125t1.318359375,0.8056640625q1.611328125,0,2.548828125-1.259765625t1.4794921875-3.0029296875t0.8642578125-3.603515625t0.8203125-3.0615234375q-0.05859375-0.41015625-0.05859375-0.8056640625l0-0.8056640625q-0.673828125-1.259765625-1.962890625-2.1826171875t-2.666015625-1.2451171875q-0.17578125-0.029296875-0.322265625-0.029296875q-0.8203125,0-1.34765625,0.966796875q-0.673828125,1.171875-1.0546875,2.7978515625t-0.5419921875,3.2080078125t-0.1611328125,2.138671875z M129.07255859375,53.955078125q0-2.34375,0.9228515625-4.775390625t2.51953125-4.4091796875t3.75-3.2373046875t4.6728515625-1.259765625q2.578125,0,4.2919921875,1.201171875t2.7392578125,3.0615234375t1.4208984375,4.1455078125t0.3955078125,4.365234375q0,2.2265625-0.3955078125,5.1416015625t-1.23046875,5.947265625t-2.138671875,5.9912109375t-3.0615234375,5.2734375t-4.072265625,3.720703125t-5.126953125,1.40625q-0.29296875,0-0.8349609375-0.05859375t-1.083984375-0.17578125t-0.9375-0.380859375t-0.3955078125-0.703125q0-0.41015625,0.3955078125-0.64453125t0.9375-0.3662109375t1.0693359375-0.2197265625t0.849609375-0.205078125q1.845703125-0.791015625,3.5302734375-2.9150390625t2.9736328125-4.7314453125t2.1240234375-5.2734375t1.1572265625-4.599609375q-1.552734375,0.966796875-3.427734375,1.4501953125t-3.720703125,0.4833984375q-3.720703125,0-5.5224609375-2.34375t-1.8017578125-5.888671875z M134.11162109375,54.453125q0,0.5859375,0.146484375,1.552734375t0.4541015625,1.8896484375t0.849609375,1.58203125t1.3623046875,0.6591796875q0.791015625,0,1.81640625-0.3515625t2.0068359375-0.9228515625t1.8310546875-1.2451171875t1.259765625-1.201171875q0.3515625-0.41015625,0.46875-1.669921875t0.05859375-2.8564453125t-0.322265625-3.33984375t-0.7470703125-3.1201171875t-1.142578125-2.1826171875t-1.5673828125-0.6298828125q-1.611328125,0.3515625-2.8125,1.640625t-2.0068359375,3.0322265625t-1.23046875,3.662109375t-0.4248046875,3.5009765625z M155.75234375,76.8359375q0.05859375-1.23046875,0.05859375-2.40234375q0-4.248046875,0.3076171875-8.466796875t0.4248046875-8.466796875q0.17578125-4.86328125,0.322265625-9.638671875t0.5859375-9.609375q0.1171875-1.201171875,0.6884765625-1.5673828125t1.7138671875-0.3662109375q0.52734375,0,1.40625,0.205078125t0.87890625,0.99609375q0.41015625,0.05859375,0.8203125,0.05859375q0.615234375,0,1.259765625-0.1171875q1.0546875-0.17578125,2.1533203125-0.3955078125t2.1826171875-0.4248046875t2.080078125-0.205078125q0.234375,0,0.6591796875,0.029296875t0.849609375,0.17578125t0.7177734375,0.3662109375t0.29296875,0.5712890625t-0.6884765625,0.6298828125t-1.8017578125,0.4833984375t-2.40234375,0.3515625t-2.51953125,0.2490234375t-2.1826171875,0.1611328125t-1.3623046875,0.05859375l-0.05859375,11.015625l0.05859375,5.478515625q0.908203125,0,2.724609375-0.05859375q0.732421875-0.029296875,1.46484375-0.029296875q1.11328125,0,2.28515625,0.05859375q1.93359375,0.087890625,3.486328125,0.3515625t1.962890625,0.9375q0,0.41015625-0.4248046875,0.6591796875t-0.9521484375,0.3662109375t-1.0693359375,0.146484375t-0.7763671875,0.029296875q-2.16796875,0-4.365234375-0.087890625t-4.3359375-0.3515625q0,3.603515625-0.1904296875,7.1484375t-0.1904296875,7.1484375q0,1.552734375,0.029296875,3.0615234375t0.3515625,3.0029296875q0.791015625-0.05859375,1.7138671875-0.146484375t1.875-0.2197265625t1.8310546875-0.2197265625t1.5234375-0.087890625q0.3515625,0,0.9521484375,0.087890625t1.23046875,0.29296875t1.083984375,0.5126953125t0.4541015625,0.7177734375q0,0.46875-0.8642578125,0.8349609375t-2.2119140625,0.5859375t-2.9443359375,0.3076171875t-3.0908203125,0.1171875t-2.6953125,0.029296875l-1.69921875,0q-1.611328125,0-2.3583984375-0.6005859375t-1.0400390625-1.5673828125q-0.234375-0.791015625-0.205078125-1.787109375l0-0.41015625z M181.31884765625,65.5859375q0-0.5859375,1.5966796875-0.87890625t3.75-0.4248046875t4.4677734375-0.1025390625t3.75,0.029296875q0.732421875,0,1.7138671875,0.2783203125t0.9814453125,0.9228515625q0,0.52734375-0.46875,0.7763671875t-1.0986328125,0.3662109375t-1.23046875,0.1171875l-0.7763671875,0q-2.05078125,0-3.8525390625-0.087890625t-3.7353515625-0.087890625q-0.5859375,0-1.1865234375,0.05859375t-1.1279296875,0.05859375l-0.8349609375,0t-0.908203125-0.087890625t-0.732421875-0.29296875t-0.3076171875-0.64453125z M204.7759765625,70.654296875q0-6.357421875,0.5712890625-12.7294921875t2.3876953125-12.5537109375q0.52734375-1.845703125,1.376953125-3.6474609375t2.080078125-3.2080078125t2.9296875-2.28515625t4.04296875-0.87890625l0.615234375,0.05859375q2.51953125,0.3515625,3.720703125,2.0361328125t1.201171875,4.2041015625q0,0.673828125-0.1611328125,1.6845703125t-0.5126953125,1.9482421875t-0.9521484375,1.5966796875t-1.5087890625,0.6591796875q-0.41015625-0.05859375-0.7470703125-0.146484375t-0.6298828125-0.380859375q0.46875-1.025390625,0.8349609375-2.138671875t0.3662109375-2.548828125q0-0.52734375-0.087890625-1.34765625t-0.3369140625-1.6259765625t-0.6591796875-1.40625t-1.142578125-0.6005859375q-1.845703125,0-3.10546875,2.0654296875t-2.109375,5.2734375t-1.259765625,7.08984375t-0.6298828125,7.5t-0.2490234375,6.533203125t-0.029296875,4.1162109375q0,1.40625-0.029296875,3.10546875l0,0.380859375q0.029296875,1.494140625,0.205078125,2.841796875q0.234375,1.5234375,0.908203125,2.63671875t2.109375,1.2890625q0.439453125,0.05859375,0.849609375,0.05859375q1.69921875,0,3.076171875-0.966796875q1.69921875-1.201171875,3.017578125-3.1201171875t2.34375-4.21875t1.8896484375-4.3505859375t1.6845703125-3.3984375t1.69921875-1.34765625q0.29296875,0,0.87890625,0.1171875t0.5859375,0.556640625q0,0.1171875-0.05859375,0.322265625t-0.146484375,0.322265625q-0.791015625,3.10546875-2.0068359375,6.4453125t-3.10546875,6.0791015625t-4.62890625,4.4677734375t-6.5771484375,1.728515625q-2.75390625,0-4.4677734375-1.0400390625t-2.63671875-2.783203125t-1.259765625-3.9404296875t-0.3369140625-4.453125z M235.41083984375,69.62890625q0-1.669921875,0.4248046875-3.4423828125t1.34765625-3.193359375t2.3291015625-2.314453125t3.3984375-0.8935546875q1.494140625,0,3.1494140625,0.5126953125t3.0322265625,1.46484375t2.2412109375,2.3291015625t0.8642578125,3.076171875q0,2.05078125-0.7470703125,3.896484375t-2.0947265625,3.2958984375t-3.1494140625,2.28515625t-3.9111328125,0.8349609375q-1.728515625,0-3.017578125-0.6298828125t-2.1533203125-1.6845703125t-1.2890625-2.490234375t-0.4248046875-3.046875z M239.71748046875,69.5703125q0,0.52734375,0.1611328125,1.552734375t0.4833984375,2.0068359375t0.8349609375,1.69921875t1.2451171875,0.6591796875q1.552734375-0.17578125,2.5634765625-1.0107421875t1.640625-2.0361328125t0.87890625-2.607421875t0.2490234375-2.666015625q0-1.611328125-0.6298828125-2.6953125t-2.0654296875-1.7578125q0,0.05859375,0.05859375,0.05859375t0.05859375-0.05859375l-0.732421875-0.17578125q-0.29296875-0.1171875-0.7177734375-0.263671875t-0.8349609375-0.64453125q-1.142578125,0.41015625-1.7724609375,1.0546875t-0.9521484375,1.5673828125t-0.3955078125,2.2119140625t-0.0732421875,3.10546875z M257.6814453125,61.7333984375q-0.0732421875-0.9814453125,0.1171875-1.8017578125t0.76171875-1.3330078125t1.8310546875-0.5126953125q0.29296875,0,0.7177734375,0.0732421875t0.8349609375,0.1904296875t0.6884765625,0.3515625t0.2783203125,0.64453125l0,3.310546875q1.142578125-1.318359375,2.490234375-1.8896484375t3.076171875-0.5712890625q1.318359375,0,2.607421875,0.6005859375t2.431640625,1.5966796875t1.9775390625,2.197265625t1.2158203125,2.40234375q0.234375-1.083984375,0.52734375-2.6513671875t0.8642578125-3.0029296875t1.5087890625-2.4609375t2.490234375-1.025390625q1.669921875,0,2.8125,1.201171875t1.8603515625,3.1201171875t1.083984375,4.2919921875t0.5419921875,4.6875t0.17578125,4.3212890625l0,3.1494140625q0,0.3515625-0.263671875,0.5712890625t-0.6591796875,0.3369140625t-0.8203125,0.146484375t-0.6591796875,0.029296875q-0.908203125,0-1.6552734375-0.2783203125t-0.7470703125-1.4208984375l0-2.63671875t-0.05859375-3.4130859375t-0.205078125-3.662109375t-0.380859375-3.3251953125t-0.6005859375-2.40234375t-0.8935546875-0.9375q-0.732421875,0-1.0546875,0.8203125t-0.5419921875,2.080078125t-0.3369140625,2.666015625t-0.322265625,2.666015625t-0.6591796875,2.0654296875t-1.2451171875,0.8056640625q-0.849609375,0-1.494140625-0.8056640625t-1.2744140625-2.0068359375t-1.259765625-2.578125t-1.3916015625-2.578125q-0.76171875-1.23046875-1.640625-1.9921875q-0.791015625-0.732421875-1.787109375-0.703125l-0.146484375,0q-1.318359375,0.05859375-2.0654296875,0.9521484375t-1.142578125,2.1826171875t-0.4833984375,2.7685546875t-0.087890625,2.5927734375q0,1.0546875,0.17578125,2.4609375q0.1171875,0.9375,0.1171875,1.787109375q0,0.439453125-0.029296875,0.849609375q-0.087890625,1.23046875-0.6591796875,2.0654296875t-2.1240234375,0.8349609375q-0.5859375,0-1.46484375-0.1171875t-1.171875-0.791015625q-0.673828125-1.201171875-1.025390625-3.0322265625t-0.52734375-3.779296875t-0.205078125-3.8671875t-0.029296875-3.2958984375q0-0.966796875-0.0732421875-1.9482421875z M294.70302734375,61.7333984375q-0.0732421875-0.9814453125,0.1171875-1.8017578125t0.76171875-1.3330078125t1.8310546875-0.5126953125q0.29296875,0,0.7177734375,0.0732421875t0.8349609375,0.1904296875t0.6884765625,0.3515625t0.2783203125,0.64453125l0,3.310546875q1.142578125-1.318359375,2.490234375-1.8896484375t3.076171875-0.5712890625q1.318359375,0,2.607421875,0.6005859375t2.431640625,1.5966796875t1.9775390625,2.197265625t1.2158203125,2.40234375q0.234375-1.083984375,0.52734375-2.6513671875t0.8642578125-3.0029296875t1.5087890625-2.4609375t2.490234375-1.025390625q1.669921875,0,2.8125,1.201171875t1.8603515625,3.1201171875t1.083984375,4.2919921875t0.5419921875,4.6875t0.17578125,4.3212890625l0,3.1494140625q0,0.3515625-0.263671875,0.5712890625t-0.6591796875,0.3369140625t-0.8203125,0.146484375t-0.6591796875,0.029296875q-0.908203125,0-1.6552734375-0.2783203125t-0.7470703125-1.4208984375l0-2.63671875t-0.05859375-3.4130859375t-0.205078125-3.662109375t-0.380859375-3.3251953125t-0.6005859375-2.40234375t-0.8935546875-0.9375q-0.732421875,0-1.0546875,0.8203125t-0.5419921875,2.080078125t-0.3369140625,2.666015625t-0.322265625,2.666015625t-0.6591796875,2.0654296875t-1.2451171875,0.8056640625q-0.849609375,0-1.494140625-0.8056640625t-1.2744140625-2.0068359375t-1.259765625-2.578125t-1.3916015625-2.578125q-0.76171875-1.23046875-1.640625-1.9921875q-0.791015625-0.732421875-1.787109375-0.703125l-0.146484375,0q-1.318359375,0.05859375-2.0654296875,0.9521484375t-1.142578125,2.1826171875t-0.4833984375,2.7685546875t-0.087890625,2.5927734375q0,1.0546875,0.17578125,2.4609375q0.1171875,0.9375,0.1171875,1.787109375q0,0.439453125-0.029296875,0.849609375q-0.087890625,1.23046875-0.6591796875,2.0654296875t-2.1240234375,0.8349609375q-0.5859375,0-1.46484375-0.1171875t-1.171875-0.791015625q-0.673828125-1.201171875-1.025390625-3.0322265625t-0.52734375-3.779296875t-0.205078125-3.8671875t-0.029296875-3.2958984375q0-0.966796875-0.0732421875-1.9482421875z M331.6513671875,70.2734375q0-2.05078125,0.4541015625-4.833984375t1.5380859375-5.2734375t2.8564453125-4.2333984375t4.4677734375-1.7431640625q2.51953125,0,3.779296875,1.4501953125t1.259765625,3.9111328125q0,1.611328125-0.6005859375,3.5302734375t-1.7138671875,3.6328125t-2.63671875,2.8564453125t-3.3984375,1.142578125l-0.76171875-0.05859375q0,0.791015625,0.234375,2.1240234375t0.6884765625,2.6513671875t1.171875,2.314453125t1.7431640625,0.99609375q1.494140625,0,2.87109375-1.201171875t2.607421875-2.666015625t2.28515625-2.666015625t1.93359375-1.201171875q0.46875,0,0.966796875,0.146484375t0.556640625,0.8203125q0,0.41015625-0.2197265625,0.673828125t-0.3955078125,0.5859375q-0.908203125,1.552734375-1.9775390625,2.958984375t-2.4169921875,2.548828125t-2.9443359375,1.8017578125t-3.5302734375,0.6591796875q-2.51953125,0-4.189453125-0.8935546875t-2.6953125-2.40234375t-1.4794921875-3.486328125t-0.4541015625-4.1455078125z M336.8955078125,68.046875l0.8203125,0.732421875q0.5859375,0.52734375,1.171875,0.234375t1.0546875-1.0693359375t0.8642578125-1.9189453125t0.703125-2.34375t0.4541015625-2.34375t0.146484375-1.904296875l0-0.99609375t-0.087890625-1.0546875t-0.3076171875-0.8349609375t-0.6884765625-0.4248046875q-0.146484375-0.029296875-0.263671875-0.029296875q-0.99609375,0-1.69921875,1.259765625q-0.76171875,1.40625-1.23046875,3.4130859375t-0.673828125,4.1162109375t-0.263671875,3.1640625z M356.13388671875,60.869140625q0-1.201171875,0.4248046875-2.021484375t1.8017578125-0.8203125q0.52734375,0,1.318359375,0.1611328125t0.908203125,0.8056640625q0.29296875,1.728515625,0.322265625,3.75t0.205078125,3.80859375q0.673828125-1.318359375,1.728515625-2.841796875t2.40234375-2.8125t2.9296875-2.138671875t3.22265625-0.849609375q0.1171875,0,0.439453125,0.087890625t0.6005859375,0.2490234375t0.3369140625,0.3662109375t-0.322265625,0.380859375q-0.1171875,0.3515625-0.498046875,0.4248046875t-0.673828125,0.0732421875q-0.17578125,0-0.556640625-0.146484375q-2.16796875,1.142578125-3.69140625,3.10546875t-2.490234375,4.3505859375t-1.40625,5.0390625t-0.439453125,5.1708984375q0,1.259765625-0.5712890625,1.5234375t-1.8310546875,0.263671875q-0.673828125,0-1.4208984375-0.146484375t-1.0400390625-0.9375q-0.52734375-1.669921875-0.8642578125-3.837890625t-0.5126953125-4.4677734375t-0.2490234375-4.5263671875t-0.0732421875-4.013671875z M376.954296875,68.486328125q0-2.109375,0.5419921875-4.2333984375t1.6845703125-3.80859375t2.9150390625-2.7392578125t4.1748046875-1.0546875q1.025390625,0,2.255859375,0.2490234375t2.2705078125,0.791015625t1.7578125,1.40625t0.7177734375,2.1240234375q0,0.791015625-0.41015625,1.0546875t-1.083984375,0.263671875l-0.205078125-0.29296875t-0.5712890625-0.7470703125t-0.7763671875-0.966796875t-0.791015625-0.8642578125q-1.201171875-1.201171875-2.255859375-1.2890625l-0.234375,0q-0.87890625,0-1.640625,0.52734375q-0.849609375,0.64453125-1.5087890625,1.81640625t-1.0986328125,2.490234375t-0.6884765625,2.666015625t-0.2490234375,2.2265625q0,1.201171875,0.2783203125,2.7392578125t0.9375,2.9150390625t1.669921875,2.314453125t2.5927734375,0.9375q1.435546875,0,2.607421875-0.703125t2.2412109375-1.5673828125t2.0947265625-1.552734375t2.109375-0.6884765625q0.46875,0,0.9521484375,0.1171875t0.4833984375,0.615234375l0,0.17578125q-0.52734375,1.376953125-1.787109375,2.431640625t-2.8271484375,1.8310546875t-3.251953125,1.1572265625t-3.0029296875,0.380859375q-2.4609375,0-4.3212890625-0.8056640625t-3.0908203125-2.2119140625t-1.8603515625-3.3837890625t-0.6298828125-4.3212890625z M402.52080078125,70.2734375q0-2.05078125,0.4541015625-4.833984375t1.5380859375-5.2734375t2.8564453125-4.2333984375t4.4677734375-1.7431640625q2.51953125,0,3.779296875,1.4501953125t1.259765625,3.9111328125q0,1.611328125-0.6005859375,3.5302734375t-1.7138671875,3.6328125t-2.63671875,2.8564453125t-3.3984375,1.142578125l-0.76171875-0.05859375q0,0.791015625,0.234375,2.1240234375t0.6884765625,2.6513671875t1.171875,2.314453125t1.7431640625,0.99609375q1.494140625,0,2.87109375-1.201171875t2.607421875-2.666015625t2.28515625-2.666015625t1.93359375-1.201171875q0.46875,0,0.966796875,0.146484375t0.556640625,0.8203125q0,0.41015625-0.2197265625,0.673828125t-0.3955078125,0.5859375q-0.908203125,1.552734375-1.9775390625,2.958984375t-2.4169921875,2.548828125t-2.9443359375,1.8017578125t-3.5302734375,0.6591796875q-2.51953125,0-4.189453125-0.8935546875t-2.6953125-2.40234375t-1.4794921875-3.486328125t-0.4541015625-4.1455078125z M407.76494140625,68.046875l0.8203125,0.732421875q0.5859375,0.52734375,1.171875,0.234375t1.0546875-1.0693359375t0.8642578125-1.9189453125t0.703125-2.34375t0.4541015625-2.34375t0.146484375-1.904296875l0-0.99609375t-0.087890625-1.0546875t-0.3076171875-0.8349609375t-0.6884765625-0.4248046875q-0.146484375-0.029296875-0.263671875-0.029296875q-0.99609375,0-1.69921875,1.259765625q-0.76171875,1.40625-1.23046875,3.4130859375t-0.673828125,4.1162109375t-0.263671875,3.1640625z"></path><path fill="#" d=""></path></svg>